<svg xmlns="http://www.w3.org/2000/svg" width="24.041" height="24" viewBox="0 0 24.041 24">
  <g id="noun_correct_1838076" transform="translate(-7.015 -7.086)">
    <path id="Path_2597" data-name="Path 2597" d="M31.049,18.569c0-.033,0-.065,0-.1a.151.151,0,0,0-.107-.141l-2.01-.732,1.736-1.165a.15.15,0,0,0,.067-.165,12.508,12.508,0,0,0-1.35-3.327.152.152,0,0,0-.165-.067l-1.979.267.939-1.731a.151.151,0,0,0-.023-.178A12.717,12.717,0,0,0,25.386,8.86a.143.143,0,0,0-.148,0L23.666,9.976q.012-.948.025-1.9a.151.151,0,0,0-.108-.141,12.6,12.6,0,0,0-3.57-.852.143.143,0,0,0-.127.073l-.852,1.676-.851-1.676a.143.143,0,0,0-.127-.073,12.614,12.614,0,0,0-3.57.852.15.15,0,0,0-.108.141q.012.948.025,1.9L12.833,8.859a.144.144,0,0,0-.148,0A12.752,12.752,0,0,0,9.92,11.23a.151.151,0,0,0-.023.178l.938,1.731-1.979-.267a.152.152,0,0,0-.165.067,12.535,12.535,0,0,0-1.35,3.327.15.15,0,0,0,.067.165L9.144,17.6l-2.01.732a.151.151,0,0,0-.108.141,12.74,12.74,0,0,0,.343,3.514.15.15,0,0,0,.141.108l2.209.238L8.18,24.023a.151.151,0,0,0-.023.177,12.583,12.583,0,0,0,1.921,2.889.143.143,0,0,0,.143.038l2.207-.871-.6,2.318a.151.151,0,0,0,.067.165,12.7,12.7,0,0,0,3.017,1.625.142.142,0,0,0,.143-.038l1.6-1.855.556,2.393a.143.143,0,0,0,.1.1,12.67,12.67,0,0,0,3.452,0,.143.143,0,0,0,.1-.1q.278-1.2.556-2.392l1.6,1.855a.142.142,0,0,0,.143.038,12.629,12.629,0,0,0,3.016-1.625.151.151,0,0,0,.067-.165l-.6-2.318,2.207.871a.141.141,0,0,0,.143-.038A12.7,12.7,0,0,0,29.912,24.2a.151.151,0,0,0-.023-.177L28.35,22.331l2.209-.238a.149.149,0,0,0,.141-.108A12.607,12.607,0,0,0,31.049,18.569Zm-15.6,4.762-3.513-4.609,1.1-.837,2.717,3.563,9.6-6.595.781,1.139Z" transform="translate(0 0)" fill="#48bf84"/>
  </g>
</svg>
